<svg width="1512" height="1512" xmlns="http://www.w3.org/2000/svg" xmlns:xlink="http://www.w3.org/1999/xlink" overflow="hidden"><g><rect x="0" y="0" width="1512" height="1512" fill="#FFFFFF"/><path d="M111.5 1226C111.5 1142.33 179.105 1074.5 262.5 1074.5 345.895 1074.5 413.5 1142.33 413.5 1226 413.5 1309.67 345.895 1377.5 262.5 1377.5 179.105 1377.5 111.5 1309.67 111.5 1226Z" stroke="#4472C4" stroke-width="10.6678" stroke-miterlimit="8" fill="none" fill-rule="evenodd"/><path d="M0 0 0.000104998 1136.58" stroke="#4472C4" stroke-width="8.00088" stroke-miterlimit="8" fill="none" fill-rule="evenodd" transform="matrix(1 0 0 -1 262 1228.58)"/><path d="M262 1226 1395.98 1226" stroke="#4472C4" stroke-width="8.00088" stroke-miterlimit="8" fill="none" fill-rule="evenodd"/><path d="M262.499 92.5C888.79 92.5 1396.5 600.209 1396.5 1226.5" stroke="#4472C4" stroke-width="13.3348" stroke-miterlimit="8" fill="none" fill-rule="evenodd"/><path d="M262.5 659.5C575.645 659.5 829.5 913.355 829.5 1226.5" stroke="#4472C4" stroke-width="13.3348" stroke-miterlimit="8" fill="none" fill-rule="evenodd"/><path d="M262.5 85.5 262.5 665.314" stroke="#4472C4" stroke-width="13.3348" stroke-miterlimit="8" fill="none" fill-rule="evenodd"/><path d="M0 0 580.064 0.000104998" stroke="#4472C4" stroke-width="13.3348" stroke-miterlimit="8" fill="none" fill-rule="evenodd" transform="matrix(-1 0 0 1 1403.56 1226.5)"/><path d="M0 0 145.521 551.17" stroke="#4472C4" stroke-width="10.6678" stroke-miterlimit="8" fill="none" fill-rule="evenodd" transform="matrix(1 0 0 -1 406.5 678.67)"/><path d="M0 0 284.849 490.556" stroke="#4472C4" stroke-width="10.6678" stroke-miterlimit="8" fill="none" fill-rule="evenodd" transform="matrix(1 0 0 -1 544.5 735.056)"/><path d="M0 0 398.144 403.232" stroke="#4472C4" stroke-width="10.6678" stroke-miterlimit="8" fill="none" fill-rule="evenodd" transform="matrix(1 0 0 -1 661.5 824.732)"/><path d="M0 0 488.554 289.108" stroke="#4472C4" stroke-width="10.6678" stroke-miterlimit="8" fill="none" fill-rule="evenodd" transform="matrix(1 0 0 -1 750.5 936.608)"/><path d="M0 0 553.508 148.385" stroke="#4472C4" stroke-width="10.6678" stroke-miterlimit="8" fill="none" fill-rule="evenodd" transform="matrix(1 0 0 -1 805.5 1077.89)"/><path d="M262.5 602.5C607.126 602.5 886.5 881.651 886.5 1226" stroke="#4472C4" stroke-width="10.6678" stroke-miterlimit="8" fill="none" fill-rule="evenodd"/><path d="M263 545.5C638.83 545.5 943.5 850.17 943.5 1226" stroke="#4472C4" stroke-width="10.6678" stroke-miterlimit="8" fill="none" fill-rule="evenodd"/><path d="M262.535 488.5C669.589 488.5 999.571 818.69 999.571 1226" stroke="#4472C4" stroke-width="10.6678" stroke-miterlimit="8" fill="none" fill-rule="evenodd"/><path d="M266 428.5C704.238 428.5 1059.5 783.986 1059.5 1222.5" stroke="#4472C4" stroke-width="10.6678" stroke-miterlimit="8" fill="none" fill-rule="evenodd"/><path d="M263 372.5C732.718 372.5 1113.5 753.282 1113.5 1223" stroke="#4472C4" stroke-width="10.6678" stroke-miterlimit="8" fill="none" fill-rule="evenodd"/><path d="M262.5 315.5C763.422 315.5 1169.5 721.578 1169.5 1222.5" stroke="#4472C4" stroke-width="10.6678" stroke-miterlimit="8" fill="none" fill-rule="evenodd"/><path d="M265.5 258.5C797.902 258.5 1229.5 690.097 1229.5 1222.5" stroke="#4472C4" stroke-width="10.6678" stroke-miterlimit="8" fill="none" fill-rule="evenodd"/><path d="M263 202.5C826.607 202.5 1283.5 659.393 1283.5 1223" stroke="#4472C4" stroke-width="10.6678" stroke-miterlimit="8" fill="none" fill-rule="evenodd"/><path d="M262.5 145.5C857.31 145.5 1339.5 627.689 1339.5 1222.5" stroke="#4472C4" stroke-width="10.6678" stroke-miterlimit="8" fill="none" fill-rule="evenodd"/><text font-family="Microsoft YaHei,Microsoft YaHei_MSFontService,sans-serif" font-weight="700" font-size="37.3374" transform="translate(204.763 646)">1</text><text font-family="Microsoft YaHei,Microsoft YaHei_MSFontService,sans-serif" font-weight="700" font-size="37.3374" transform="translate(204.763 585)">2</text><text font-family="Microsoft YaHei,Microsoft YaHei_MSFontService,sans-serif" font-weight="700" font-size="37.3374" transform="translate(204.763 530)">3</text><text font-family="Microsoft YaHei,Microsoft YaHei_MSFontService,sans-serif" font-weight="700" font-size="37.3374" transform="translate(204.763 472)">4</text><text font-family="Microsoft YaHei,Microsoft YaHei_MSFontService,sans-serif" font-weight="700" font-size="37.3374" transform="translate(204.763 413)">5</text><text font-family="Microsoft YaHei,Microsoft YaHei_MSFontService,sans-serif" font-weight="700" font-size="37.3374" transform="translate(204.763 356)">6</text><text font-family="Microsoft YaHei,Microsoft YaHei_MSFontService,sans-serif" font-weight="700" font-size="37.3374" transform="translate(204.763 300)">7</text><text font-family="Microsoft YaHei,Microsoft YaHei_MSFontService,sans-serif" font-weight="700" font-size="37.3374" transform="translate(204.763 243)">8</text><text font-family="Microsoft YaHei,Microsoft YaHei_MSFontService,sans-serif" font-weight="700" font-size="37.3374" transform="translate(204.763 186)">9</text><text font-family="Microsoft YaHei,Microsoft YaHei_MSFontService,sans-serif" font-weight="700" font-size="37.3374" transform="translate(193.261 132)">10</text><text font-family="Microsoft YaHei,Microsoft YaHei_MSFontService,sans-serif" font-weight="700" font-size="48.0053" transform="translate(312.036 727)">A</text><text font-family="Microsoft YaHei,Microsoft YaHei_MSFontService,sans-serif" font-weight="700" font-size="48.0053" transform="translate(447.003 765)">B</text><text font-family="Microsoft YaHei,Microsoft YaHei_MSFontService,sans-serif" font-weight="700" font-size="48.0053" transform="translate(561.167 830)">C</text><text font-family="Microsoft YaHei,Microsoft YaHei_MSFontService,sans-serif" font-weight="700" font-size="48.0053" transform="translate(648.537 924)">D</text><text font-family="Microsoft YaHei,Microsoft YaHei_MSFontService,sans-serif" font-weight="700" font-size="48.0053" transform="translate(724.795 1048)">E</text><text font-family="Microsoft YaHei,Microsoft YaHei_MSFontService,sans-serif" font-weight="700" font-size="48.0053" transform="translate(764.054 1179)">F</text><text font-family="Microsoft YaHei,Microsoft YaHei_MSFontService,sans-serif" font-weight="700" font-size="37.3374" transform="translate(843.457 1278)">1</text><text font-family="Microsoft YaHei,Microsoft YaHei_MSFontService,sans-serif" font-weight="700" font-size="37.3374" transform="translate(899.964 1278)">2</text><text font-family="Microsoft YaHei,Microsoft YaHei_MSFontService,sans-serif" font-weight="700" font-size="37.3374" transform="translate(956.47 1278)">3</text><text font-family="Microsoft YaHei,Microsoft YaHei_MSFontService,sans-serif" font-weight="700" font-size="37.3374" transform="translate(1012.98 1278)">4</text><text font-family="Microsoft YaHei,Microsoft YaHei_MSFontService,sans-serif" font-weight="700" font-size="37.3374" transform="translate(1069.48 1278)">5</text><text font-family="Microsoft YaHei,Microsoft YaHei_MSFontService,sans-serif" font-weight="700" font-size="37.3374" transform="translate(1125.99 1278)">6</text><text font-family="Microsoft YaHei,Microsoft YaHei_MSFontService,sans-serif" font-weight="700" font-size="37.3374" transform="translate(1182.49 1278)">7</text><text font-family="Microsoft YaHei,Microsoft YaHei_MSFontService,sans-serif" font-weight="700" font-size="37.3374" transform="translate(1239 1278)">8</text><text font-family="Microsoft YaHei,Microsoft YaHei_MSFontService,sans-serif" font-weight="700" font-size="37.3374" transform="translate(1295.51 1278)">9</text><text font-family="Microsoft YaHei,Microsoft YaHei_MSFontService,sans-serif" font-weight="700" font-size="37.3374" transform="translate(1352.01 1278)">10</text><path d="M0 0 28.9929 224.776" stroke="#4472C4" stroke-width="8.00088" stroke-miterlimit="8" fill="none" fill-rule="evenodd" transform="matrix(1 0 0 -1 381 324.776)"/><path d="M0 0 84.9335 204.999" stroke="#4472C4" stroke-width="8.00088" stroke-miterlimit="8" fill="none" fill-rule="evenodd" transform="matrix(1 0 0 -1 611 383.999)"/><path d="M0 0 137.336 178.787" stroke="#4472C4" stroke-width="8.00088" stroke-miterlimit="8" fill="none" fill-rule="evenodd" transform="matrix(1 0 0 -1 816 503.787)"/><path d="M0 0 180.637 138.536" stroke="#4472C4" stroke-width="8.00088" stroke-miterlimit="8" fill="none" fill-rule="evenodd" transform="matrix(1 0 0 -1 984 671.536)"/><path d="M0 0 212.585 88.1548" stroke="#4472C4" stroke-width="8.00088" stroke-miterlimit="8" fill="none" fill-rule="evenodd" transform="matrix(1 0 0 -1 1100 878.155)"/><text font-family="Microsoft YaHei,Microsoft YaHei_MSFontService,sans-serif" font-weight="700" font-size="48.0053" transform="translate(218.964 1276)">O</text><text font-family="Microsoft YaHei,Microsoft YaHei_MSFontService,sans-serif" font-weight="700" font-size="48.0053" transform="translate(315.7 80)">H</text><text font-family="Microsoft YaHei,Microsoft YaHei_MSFontService,sans-serif" font-weight="700" font-size="48.0053" transform="translate(469.693 95)">I</text><text font-family="Microsoft YaHei,Microsoft YaHei_MSFontService,sans-serif" font-weight="700" font-size="48.0053" transform="translate(626.08 128)">J</text><text font-family="Microsoft YaHei,Microsoft YaHei_MSFontService,sans-serif" font-weight="700" font-size="48.0053" transform="translate(770.563 185)">K</text><text font-family="Microsoft YaHei,Microsoft YaHei_MSFontService,sans-serif" font-weight="700" font-size="48.0053" transform="translate(894.128 267)">L</text><text font-family="Microsoft YaHei,Microsoft YaHei_MSFontService,sans-serif" font-weight="700" font-size="48.0053" transform="translate(1016.32 355)">M</text><text font-family="Microsoft YaHei,Microsoft YaHei_MSFontService,sans-serif" font-weight="700" font-size="48.0053" transform="translate(1128.33 471)">N</text><text font-family="Microsoft YaHei,Microsoft YaHei_MSFontService,sans-serif" font-weight="700" font-size="48.0053" transform="translate(1222.3 586)">P</text><text font-family="Microsoft YaHei,Microsoft YaHei_MSFontService,sans-serif" font-weight="700" font-size="48.0053" transform="translate(1306.4 724)">Q</text><text font-family="Microsoft YaHei,Microsoft YaHei_MSFontService,sans-serif" font-weight="700" font-size="48.0053" transform="translate(1360.75 871)">R</text><text font-family="Microsoft YaHei,Microsoft YaHei_MSFontService,sans-serif" font-weight="700" font-size="48.0053" transform="translate(1400.42 1024)">S</text><text font-family="Microsoft YaHei,Microsoft YaHei_MSFontService,sans-serif" font-weight="700" font-size="48.0053" transform="translate(1420.39 1184)">T</text><path d="M114.14 994.521 162.447 1055.72 156.167 1060.68 107.86 999.479ZM166.249 1047.62 171.7 1073.9 147.408 1062.5Z"/><text font-family="Microsoft YaHei,Microsoft YaHei_MSFontService,sans-serif" font-weight="700" font-size="42.6714" transform="translate(25.8925 920)">直径</text><text font-family="Microsoft YaHei,Microsoft YaHei_MSFontService,sans-serif" font-weight="700" font-size="42.6714" transform="translate(123.903 920)">80cm</text><text font-family="Microsoft YaHei,Microsoft YaHei_MSFontService,sans-serif" font-weight="700" font-size="42.6714" transform="translate(25.8925 971)">圆形区域</text><text font-family="Microsoft YaHei,Microsoft YaHei_MSFontService,sans-serif" font-weight="700" font-size="42.6714" transform="translate(493.56 1436)">150cm</text><path d="M0 0 0.000104998 75.5989" stroke="#4472C4" stroke-width="8.00088" stroke-miterlimit="8" fill="none" fill-rule="evenodd" transform="matrix(1 0 0 -1 259 1490.6)"/><path d="M0 0 0.000104998 75.5989" stroke="#4472C4" stroke-width="8.00088" stroke-miterlimit="8" fill="none" fill-rule="evenodd" transform="matrix(1 0 0 -1 828 1495.6)"/><path d="M1394 1490.6 1394 1415" stroke="#4472C4" stroke-width="8.00088" stroke-miterlimit="8" fill="none" fill-rule="evenodd"/><path d="M288.17 1464.17 803.175 1464.17 803.175 1474.83 288.17 1474.83ZM293.504 1485.5 261.5 1469.5 293.504 1453.5ZM797.841 1453.5 829.845 1469.5 797.841 1485.5Z" fill="#4472C4"/><path d="M855.17 1464.17 1369.02 1464.17 1369.02 1474.83 855.17 1474.83ZM860.504 1485.5 828.5 1469.5 860.504 1453.5ZM1363.69 1453.5 1395.69 1469.5 1363.69 1485.5Z" fill="#4472C4"/><text font-family="Microsoft YaHei,Microsoft YaHei_MSFontService,sans-serif" font-weight="700" font-size="42.6714" transform="translate(1067.7 1436)">150cm</text><path d="M0 0 224.636 29.4087" stroke="#4472C4" stroke-width="8.00088" stroke-miterlimit="8" fill="none" fill-rule="evenodd" transform="matrix(1 0 0 -1 1161 1108.41)"/></g></svg>